<svg xmlns="http://www.w3.org/2000/svg" viewBox="0 0 676.92 225.71"><defs><style>.cls-1{fill:#fff;}</style></defs><title>WhiteAsset 6</title><g id="Layer_2" data-name="Layer 2"><g id="Layer_1-2" data-name="Layer 1"><path class="cls-1" d="M255.46,91.1c-13,0-23.62-10.4-23.62-23A23.32,23.32,0,0,1,255.33,45,21.69,21.69,0,0,1,275.75,58.6L291.48,52c-5.85-13.78-19.25-23.53-36.28-23.53a39.12,39.12,0,0,0-39.52,39.65,39.26,39.26,0,0,0,39.52,39.52c17.68,0,30.55-9.88,36.54-23.92L276,76.93C272.49,85.25,265.34,91.1,255.46,91.1Z"/><path class="cls-1" d="M357.38,39.1c-5.59-6.63-14.43-10.66-24.44-10.66-19.24,0-37.7,14.43-37.7,39.65,0,25,19.11,39.52,37.44,39.52,10,0,19.11-4.29,24.7-11.44v9.88h17.56V30H357.38ZM335.54,91.49a23.88,23.88,0,0,1-24-23.66c0-13.13,11-23.4,24-23.4s22.75,10.4,22.75,23.4S348.67,91.49,335.54,91.49Z"/><path class="cls-1" d="M422.25,91.1c-13,0-23.62-10.4-23.62-23A23.32,23.32,0,0,1,422.12,45,21.67,21.67,0,0,1,442.53,58.6L458.26,52C452.41,38.19,439,28.44,422,28.44a39.12,39.12,0,0,0-39.52,39.65A39.26,39.26,0,0,0,422,107.61c17.68,0,30.55-9.88,36.53-23.92l-15.73-6.76C439.28,85.25,432.13,91.1,422.25,91.1Z"/><path class="cls-1" d="M501.55,28.44C479.32,28.44,462,46,462,68.22c0,22,16.25,39.39,40.17,39.39,17.16,0,28.86-8.19,35.49-20.54l-14.43-8.32c-3.64,8.19-11.18,13.39-21.06,13.39-12.48,0-20.93-7.15-23.4-17.94h61.88V67.57C540.68,45.08,524.17,28.44,501.55,28.44ZM479.71,59.51c3.12-9.36,11.31-16.6,21.84-16.6,10.92,0,18.72,6.33,21.32,16.6Z"/><path class="cls-1" d="M581.5,59.9c-11.44-2.47-18.42-3.77-18.42-8.84,0-4.29,4.9-8.19,13.22-8.19,7.28,0,13,3.38,16.12,8.71l15-7.54c-5.85-9.75-15.6-15.73-31.07-15.73-18.07,0-29.9,11.05-29.9,23.27,0,16,13.65,20.15,26.65,22.88,9.36,2.08,18.81,3.12,18.81,8.71,0,5.07-5.29,9.23-14,9.23-8.32,0-14.69-3.9-18.33-11.05l-16.25,7.8c6.11,12,16.77,18.46,33.8,18.46,21.71,0,31.2-14.17,31.2-24.83C608.28,66.79,594,62.37,581.5,59.9Z"/><path class="cls-1" d="M650.14,59.9c-11.44-2.47-18.42-3.77-18.42-8.84,0-4.29,4.9-8.19,13.22-8.19,7.28,0,13,3.38,16.12,8.71L676,44c-5.85-9.75-15.6-15.73-31.07-15.73-18.07,0-29.9,11.05-29.9,23.27,0,16,13.65,20.15,26.65,22.88,9.36,2.08,18.81,3.12,18.81,8.71,0,5.07-5.29,9.23-14,9.23-8.32,0-14.69-3.9-18.33-11.05l-16.25,7.8c6.11,12,16.77,18.46,33.8,18.46,21.71,0,31.2-14.17,31.2-24.83C676.92,66.79,662.62,62.37,650.14,59.9Z"/><path class="cls-1" d="M216.05,175.46l2.23-3.14-37.9-21.88V104.33h0a29,29,0,0,0,10.22-8.16v9.88h17.55V30H190.6v9.1c-5.59-6.63-14.43-10.66-24.44-10.66A37.78,37.78,0,0,0,143,36.35L80,0V23.13L60,11.58V34.72L40,23.17V46.26L20,34.71V57.82L0,46.27V167.74l100.39,58V202.6l20,11.55V191.06l20,11.55V179.47l35.23,20.34h0a43.47,43.47,0,0,0,51.26-6.44l3.38-3.23-18.08-10.44A23.57,23.57,0,0,0,216.05,175.46Zm-35.67-16.94,27.33,15.79a16.5,16.5,0,0,1-27.33-12.45ZM168.76,44.43c13.13,0,22.75,10.4,22.75,23.4s-9.62,23.66-22.75,23.66a24.16,24.16,0,0,1-8.38-1.5V69.55L145.76,61.1A24,24,0,0,1,168.76,44.43ZM87,12.12l50.68,29.27a37.17,37.17,0,0,0-6.58,11.25L87,27.17Zm6.39,201.47L7,163.7V58.4l86.39,49.88Zm20-11.57-13-7.51V104.24L27,61.86v-15l86.39,49.89Zm20-11.54-13-7.5V92.68L47,50.3v-15l86.39,49.89Zm7-19.1V81.14L67,38.76V23.7l86.38,49.89v88.27a43.19,43.19,0,0,0,4.79,19.79Zm78,20a36.51,36.51,0,0,1-58-29.5V107.17a35.41,35.41,0,0,0,5.52.44,34.25,34.25,0,0,0,7.49-.83h0v55.08a23.48,23.48,0,0,0,31.92,21.93Z"/></g></g></svg>